# xmcd CD database file
#
# Track frame offsets:
#	150
#	2540
#	21596
#	47046
#	65910
#	87436
#	107540
#	129848
#	152258
#	180359
#	198792
#	223870
#	238994
#
# Disc length: 3286 seconds
#
# Revision: 2
# Processed by: cddbd v1.5.1PL0 Copyright (c) Steve Scherf et al.
# Submitted via: CDex 1.51
#
DISCID=a80cd40d
DTITLE=Chiduko - 永遠の記憶 〜Eternal Memory〜
DYEAR=2005
DGENRE=Vocal
TTITLE0=Prologue 〜Eternal Memory〜
TTITLE1=星の雫
TTITLE2=Eternal Children
TTITLE3=透明な雨
TTITLE4=Point of Love
TTITLE5=遠い日の魚
TTITLE6=Metamorphoses 〜1543〜
TTITLE7=Merry-go-round
TTITLE8=この惑星の下で
TTITLE9=青と白の空
TTITLE10=Apogee 〜エレド〜
TTITLE11=ABOUT LOVE
TTITLE12=Epilogue 〜Message of Light〜
EXTD=YEAR: 2005/01/31
EXTT0=
EXTT1=
EXTT2=
EXTT3=
EXTT4=
EXTT5=
EXTT6=
EXTT7=
EXTT8=
EXTT9=
EXTT10=
EXTT11=
EXTT12=
PLAYORDER=
